<?xml version="1.0" encoding="UTF-8"?>
<svg width="1200pt" height="1200pt" version="1.1" viewBox="0 0 1200 1200" xmlns="http://www.w3.org/2000/svg">
 <path d="m75 281.63c0 8.2969-6.75 15-15 15-8.2969 0-15-6.75-15-15v-3.1406c0-8.2969 6.75-15 15-15 8.2969 0 15 6.75 15 15zm874.4 90.609v102.52h68.672c8.2969 0 15 6.75 15 15 0 8.2969-6.75 15-15 15h-193.03c-8.2969 0-15-6.75-15-15v-124.69h-146.26v144.37c0 8.2969-6.75 15-15 15h-185.63v105c0 8.2969-6.75 15-15 15h-193.13c-8.2969 0-15-6.75-15-15 0-8.2969 6.75-15 15-15h178.13v-105c0-8.2969 6.75-15 15-15h185.63v-144.37c0-8.2969 6.75-15 15-15h176.26c8.2969 0 15 6.75 15 15v124.69h79.406v-201.52c0-8.2969 6.75-15 15-15h120.84c8.2969 0 15 6.75 15 15 0 4.2656-1.7812 8.1562-4.6875 10.875l-29.016 31.125 29.672 31.781c5.625 6.0469 5.25 15.516-0.75 21.141-2.8594 2.6719-6.5156 3.9844-10.172 3.9844l-105.89 0.046875zm71.438-84h-71.438v53.953h71.438l-15.656-16.828c-5.2969-5.6719-5.3906-14.625 0-20.391l15.656-16.828zm-718.18-60.891c34.312 0 65.391 13.922 87.891 36.375 22.453 22.453 36.375 53.531 36.375 87.891 0 64.641-30.375 103.36-63.094 145.08-16.828 21.422-34.312 43.734-47.766 70.781-3.6562 7.4062-12.656 10.406-20.109 6.75-3.0469-1.5-5.3438-3.9375-6.75-6.75-13.453-27.047-30.938-49.359-47.766-70.781-32.719-41.719-63.094-80.438-63.094-145.08 0-34.312 13.922-65.391 36.375-87.891 22.453-22.453 53.531-36.375 87.891-36.375zm66.656 57.609c-17.016-17.016-40.641-27.609-66.656-27.609-26.016 0-49.594 10.594-66.656 27.609-17.016 17.016-27.609 40.641-27.609 66.656 0 54.422 27.281 89.203 56.672 126.71 12.703 16.219 25.828 32.906 37.641 51.891 11.812-18.984 24.891-35.672 37.641-51.891 29.391-37.453 56.672-72.234 56.672-126.71 0-26.016-10.594-49.594-27.609-66.656zm-66.656 3.2812c17.438 0 33.281 7.0781 44.766 18.562 11.531 11.531 18.609 27.375 18.609 44.812s-7.0781 33.281-18.562 44.766c-11.438 11.531-27.281 18.609-44.766 18.609-17.438 0-33.281-7.0781-44.766-18.562-11.531-11.531-18.609-27.375-18.609-44.766 0-17.438 7.0781-33.281 18.562-44.766 11.531-11.531 27.375-18.609 44.766-18.609zm23.625 39.75c-6.0469-6-14.391-9.7031-23.625-9.7031-9.2344 0-17.625 3.75-23.625 9.7031-6 6.0469-9.7031 14.391-9.7031 23.672 0 9.2344 3.75 17.625 9.7031 23.625 6.0469 6 14.391 9.7031 23.625 9.7031 9.2344 0 17.625-3.75 23.625-9.75 6.0469-6 9.75-14.344 9.75-23.625 0-9.2344-3.75-17.625-9.7031-23.672zm599.06 644.44c0-8.2969 6.75-15 15-15 8.2969 0 15 6.75 15 15v125.76c0 8.2969-6.75 15-15 15h-125.63c-8.2969 0-15-6.75-15-15v-334.82h-399.37v334.82c0 8.2969-6.75 15-15 15h-125.63c-8.2969 0-15-6.75-15-15v-334.82h-152.76c-12.891 0-24.656-5.2969-33.141-13.734l-0.89062-0.98438c-7.9688-8.4375-12.844-19.781-12.844-32.156v-388.82c0-8.2969 6.75-15 15-15 8.2969 0 15 6.75 15 15v388.82c0 4.4062 1.6875 8.3906 4.4062 11.391l0.5625 0.5625c3.0469 3.0469 7.3125 4.9688 11.906 4.9688h1016.2c4.6406 0 8.8594-1.9219 11.906-4.9688s4.9688-7.2656 4.9688-11.906v-582.79c0-4.6406-1.9219-8.8594-4.9688-11.906-3.0469-3.0469-7.3125-4.9688-11.906-4.9688h-1016.3c-4.6406 0-8.8594 1.9219-11.906 4.9688-3.0469 3.0469-4.9688 7.3125-4.9688 11.906v98.812c0 8.2969-6.75 15-15 15-8.2969 0-15-6.75-15-15v-98.812c0-12.938 5.2969-24.656 13.734-33.141 8.4375-8.4375 20.25-13.734 33.141-13.734h1016.3c12.938 0 24.656 5.2969 33.141 13.734 8.4375 8.4375 13.734 20.203 13.734 33.141v582.79c0 12.844-5.2969 24.609-13.781 33.094-8.4375 8.4844-20.203 13.781-33.141 13.781h-152.81v113.95c0 8.2969-6.75 15-15 15-8.2969 0-15-6.75-15-15v-113.95h-95.625v319.87h95.625v-110.81zm0-49.125c0-8.2969 6.75-15 15-15 8.2969 0 15 6.75 15 15v3.1406c0 8.2969-6.75 15-15 15-8.2969 0-15-6.75-15-15zm-650.63-159.94v319.87h95.625v-319.87z"/>
</svg>
